<svg xmlns="http://www.w3.org/2000/svg" > 
	<symbol id="photo" width="30" height="30" viewBox="0 0 30 30">
		<path d="M1006,3959a1.505,1.505,0,0,1-1,1.41v1.68a1.5,1.5,0,1,1-1.91,1.91h-1.68a1.493,1.493,0,0,1-2.818,0h-1.684a1.491,1.491,0,0,1-2.816,0h-1.684a1.491,1.491,0,0,1-2.816,0h-1.684a1.491,1.491,0,0,1-2.816,0h-1.684a1.491,1.491,0,0,1-2.816,0h-1.684a1.5,1.5,0,1,1-1.908-1.91v-1.68a1.494,1.494,0,0,1,0-2.82v-1.68a1.494,1.494,0,0,1,0-2.82v-1.68a1.494,1.494,0,0,1,0-2.82v-1.68a1.494,1.494,0,0,1,0-2.82v-1.68a1.494,1.494,0,0,1,0-2.82v-1.68a1.5,1.5,0,1,1,1.908-1.91h1.684a1.491,1.491,0,0,1,2.816,0h1.684a1.491,1.491,0,0,1,2.816,0h1.684a1.491,1.491,0,0,1,2.816,0h1.684a1.491,1.491,0,0,1,2.816,0h1.684a1.493,1.493,0,0,1,2.818,0h1.68a1.5,1.5,0,1,1,1.91,1.91v1.68a1.494,1.494,0,0,1,0,2.82v1.68a1.494,1.494,0,0,1,0,2.82v1.68a1.494,1.494,0,0,1,0,2.82v1.68a1.494,1.494,0,0,1,0,2.82v1.68A1.505,1.505,0,0,1,1006,3959Zm-4-20H980v22h22v-22Zm-13,16,7-8.5,4.5,7v6h-19l6-6Zm-3-7a3,3,0,1,1,3-3A3,3,0,0,1,986,3948Z" transform="translate(-976 -3935)"/>
	</symbol>
		
	<symbol id="creativity" width="28" height="32" viewBox="0 0 28 32">
		<path d="M1002.5,4200.5h-3a1.5,1.5,0,0,1-1.5-1.5v-6a1.5,1.5,0,0,1,1.5-1.5h3a1.5,1.5,0,0,1,1.5,1.5v6A1.5,1.5,0,0,1,1002.5,4200.5Zm-3-15a1.5,1.5,0,0,1,3,0v4.5h-3v-4.5Zm-8,23h-3a1.5,1.5,0,0,1-1.5-1.5v-6a1.5,1.5,0,0,1,1.5-1.5h3a1.5,1.5,0,0,1,1.5,1.5v6A1.5,1.5,0,0,1,991.5,4208.5Zm-3-23a1.5,1.5,0,0,1,3,0V4198h-3v-12.5Zm-8,19h-3a1.5,1.5,0,0,1-1.5-1.5v-6a1.5,1.5,0,0,1,1.5-1.5h3a1.5,1.5,0,0,1,1.5,1.5v6A1.5,1.5,0,0,1,980.5,4204.5Zm-3-19a1.5,1.5,0,0,1,3,0v8.5h-3v-8.5Zm3,29a1.5,1.5,0,0,1-3,0V4206h3v8.5Zm11,0a1.5,1.5,0,0,1-3,0V4210h3v4.5Zm11,0a1.5,1.5,0,0,1-3,0V4202h3v12.5Z" transform="translate(-976 -4184)"/>
	</symbol>
	
	<symbol id="web-design" width="32" height="32" viewBox="0 0 32 32">
		<path d="M991,4286a16,16,0,1,1,16-16A16,16,0,0,1,991,4286Zm0-29a13,13,0,1,0,13,13A13,13,0,0,0,991,4257Zm0,22.5a9.5,9.5,0,1,1,9.5-9.5A9.5,9.5,0,0,1,991,4279.5Zm0-16a6.5,6.5,0,1,0,6.5,6.5A6.5,6.5,0,0,0,991,4263.5Zm0,9.5a3,3,0,1,1,3-3A3,3,0,0,1,991,4273Z" transform="translate(-975 -4254)"/>
	</symbol> 
</svg>
