<svg xmlns="http://www.w3.org/2000/svg" >		

	<symbol id="shop" width="17.62" height="14.031" viewBox="0 0 17.62 14.031">
		<path d="M1501.73,40.663h0l-2.48,5.5h0a0.815,0.815,0,0,1-.7.485h0l-7.12.475,0.41,1.177h7.76a1.65,1.65,0,1,1-1.65,1.651h-7.7a1.65,1.65,0,1,1-1.65-1.651h1.49l-3.18-9.075h-1.89a0.825,0.825,0,0,1,0-1.65h2.48a0.835,0.835,0,0,1,.78.554h0l0.48,1.373h12.21a0.826,0.826,0,0,1,.83.825A0.941,0.941,0,0,1,1501.73,40.663Zm-12.39.487,1.52,4.357,7.09-.473,1.75-3.884h-10.36Z" transform="translate(-1484.19 -37.563)"/>	
	</symbol>
	
	<symbol id="search" width="17.62" height="17.625" viewBox="0 0 17.62 17.625">
		<path d="M1561.32,50.983a1.652,1.652,0,0,1-2.34,2.334h0l-4.83-4.836a6.627,6.627,0,1,1,2.33-2.334l4.84,4.836h0ZM1550.8,37.85a4.95,4.95,0,1,0,4.95,4.95A4.952,4.952,0,0,0,1550.8,37.85Z" transform="translate(-1544.19 -36.188)"/>
	</symbol>
	
	<symbol id="light" width="17.62" height="17.62" viewBox="0 0 22 22" 
    preserveAspectRatio="none">	
		<path d="M4.63,6.045c0.394,0.393,1.028,0.399,1.421,0.006c0.39-0.39,0.393-1.021-0.007-1.421l-1.4-1.4C4.249,2.835,3.617,2.829,3.223,3.223c-0.391,0.39-0.394,1.02,0.007,1.421L4.63,6.045zM20.997,10.003h-1.98c-0.559,0-1.011,0.444-1.011,1c0,0.553,0.443,1,1.011,1h1.98c0.559,0,1.009-0.443,1.009-1C22.006,10.451,21.562,10.003,20.997,10.003zM4,11.003c0-0.552-0.444-1-1.01-1H1.009c-0.558,0-1.009,0.444-1.009,1c0,0.553,0.443,1,1.009,1H2.99C3.548,12.003,4,11.56,4,11.003zM11.003,5c-3.313,0-6,2.687-6,6s2.687,6,6,6c3.312,0,6-2.687,6-6S14.315,5,11.003,5zM11.003,15c-2.209,0-4-1.791-4-4s1.791-4,4-4s4,1.791,4,4S13.212,15,11.003,15zM4.63,15.962l-1.4,1.4c-0.395,0.395-0.401,1.027-0.007,1.421c0.391,0.39,1.021,0.393,1.421-0.007l1.4-1.4c0.395-0.395,0.401-1.027,0.007-1.421C5.66,15.563,5.03,15.562,4.63,15.962zM17.376,6.045l1.4-1.401c0.395-0.395,0.399-1.027,0.007-1.421c-0.392-0.39-1.021-0.393-1.421,0.007l-1.4,1.4c-0.395,0.395-0.4,1.028-0.007,1.421C16.347,6.441,16.976,6.444,17.376,6.045zM11.003,18.006c-0.553,0-1,0.444-1,1.011v1.98c0,0.559,0.444,1.009,1,1.009c0.553,0,1-0.442,1-1.009v-1.98C12.003,18.458,11.56,18.006,11.003,18.006zM17.376,15.962c-0.395-0.395-1.027-0.4-1.421-0.007c-0.39,0.392-0.394,1.021,0.007,1.421l1.4,1.4c0.395,0.395,1.027,0.399,1.421,0.007c0.391-0.39,0.394-1.021-0.007-1.421L17.376,15.962zM11.003,4c0.553,0,1-0.443,1-1.01V1.01c0-0.558-0.443-1.01-1-1.01c-0.553,0-1,0.444-1,1.01v1.98C10.003,3.548,10.447,4,11.003,4z"/>			
	</symbol>
	
	
  
</svg>